# xmcd CD database file
#
# Track frame offsets:
#	150
#	19347
#	43022
#	63032
#	80845
#	104667
#	123060
#	149852
#	163465
#	190582
#
# Disc length: 2719 seconds
#
# Revision: 1
# Processed by: cddbd v1.5.2PL0 Copyright (c) Steve Scherf et al.
# Submitted via: CDex 1.51
#
DISCID=910a9d0a
DTITLE=Roy Gaines with Crusaders Crew - Gainelining
DYEAR=1980
DGENRE=Blues
TTITLE0=First Rule Of Cheating
TTITLE1=Lowdown And Funky
TTITLE2=Baby What You Want Me To Do
TTITLE3=Its Too Late Brother
TTITLE4=It Came On Time
TTITLE5=A Hell Of A Night Tonight
TTITLE6=Houston Texas
TTITLE7=Short Haired Woman
TTITLE8=Roy's New 6 A.M. 3 O'Clock Blues
TTITLE9=Okie Dokie Stomp
EXTD=YEAR: 1980
EXTT0=
EXTT1=
EXTT2=
EXTT3=
EXTT4=
EXTT5=
EXTT6=
EXTT7=
EXTT8=
EXTT9=
PLAYORDER=
